<?xml version="1.0" encoding="utf-8"?>
<!-- Generator: Adobe Illustrator 21.0.0, SVG Export Plug-In . SVG Version: 6.00 Build 0)  -->
<svg version="1.1" id="Calque_1" xmlns="http://www.w3.org/2000/svg" xmlns:xlink="http://www.w3.org/1999/xlink" x="0px" y="0px"
	 viewBox="0 0 30 30" style="enable-background:new 0 0 30 30;" xml:space="preserve">
<style type="text/css">
	.st0{fill:#00379B;}
	.st1{fill:#FFFFFF;}
</style>
<g>
	<path class="st0" d="M0.9,22.2V7.8C0.9,7,1.3,6.3,2,6l12.1-5.8c0.6-0.3,1.2-0.3,1.8,0L28,6c0.7,0.3,1.2,1,1.2,1.8v14.3
		c0,0.8-0.4,1.5-1.2,1.8l-12.1,5.8c-0.6,0.3-1.2,0.3-1.8,0L2,24C1.3,23.7,0.9,23,0.9,22.2z"/>
</g>
<g>
	<path class="st1" d="M13.6,20.1l-4.9-3.9c-0.9-0.7-1-1.9-0.3-2.8c0.7-0.9,1.9-1,2.8-0.3l2.5,1.9l5.2-4.1c0.9-0.7,2.1-0.5,2.8,0.3
		c0.7,0.9,0.5,2.1-0.3,2.8L13.6,20.1z"/>
</g>
</svg>
