<?xml version="1.0" encoding="utf-8"?>
<!-- Generator: Adobe Illustrator 21.0.0, SVG Export Plug-In . SVG Version: 6.00 Build 0)  -->
<svg version="1.1" id="Calque_1" xmlns="http://www.w3.org/2000/svg" xmlns:xlink="http://www.w3.org/1999/xlink" x="0px" y="0px"
	 viewBox="0 0 30 30" style="enable-background:new 0 0 30 30;" xml:space="preserve">
<style type="text/css">
	.st0{fill:#E6E6E6;}
</style>
<path class="st0" d="M28,6L15.9,0.2c-0.6-0.3-1.2-0.3-1.8,0L2,6C1.3,6.3,0.9,7,0.9,7.8v14.3C0.9,23,1.3,23.7,2,24l12.1,5.8
	c0.6,0.3,1.2,0.3,1.8,0L28,24c0.7-0.3,1.2-1,1.2-1.8V7.8C29.1,7,28.7,6.3,28,6z M20.6,17.1c0,0.8-0.4,1.5-1.2,1.8l-3.5,1.7
	c-0.6,0.3-1.2,0.3-1.8,0l-3.5-1.7c-0.7-0.3-1.2-1.1-1.2-1.8v-4.1c0-0.8,0.4-1.5,1.2-1.8l3.5-1.7c0.6-0.3,1.2-0.3,1.8,0l3.5,1.7
	c0.7,0.3,1.2,1.1,1.2,1.8V17.1z"/>
</svg>
