<?xml version="1.0" encoding="utf-8"?>
<!-- Generator: Adobe Illustrator 21.0.0, SVG Export Plug-In . SVG Version: 6.00 Build 0)  -->
<svg version="1.1" id="Calque_1" xmlns="http://www.w3.org/2000/svg" xmlns:xlink="http://www.w3.org/1999/xlink" x="0px" y="0px"
	 viewBox="0 0 30 25" style="enable-background:new 0 0 30 25;" xml:space="preserve">
<style type="text/css">
	.st0{fill:#B45596;}
</style>
<path class="st0" d="M22.3,0c-3,0-5.6,1.8-6.9,4.3c-0.2,0.3-0.6,0.3-0.8,0C13.3,1.8,10.7,0,7.7,0C3.5,0,0,3.6,0,8
	c0,4.4,4.7,8.6,7.7,11.8c1.9,1.9,4.8,3.9,6.3,4.9c0.6,0.4,1.4,0.4,2,0c1.5-1,4.5-3.1,6.3-4.9c3-3.1,7.7-7.3,7.7-11.8
	C30,3.6,26.5,0,22.3,0z"/>
</svg>
