<?xml version="1.0" encoding="utf-8"?>
<!-- Generator: Adobe Illustrator 21.0.0, SVG Export Plug-In . SVG Version: 6.00 Build 0)  -->
<svg version="1.1" id="Calque_1" xmlns="http://www.w3.org/2000/svg" xmlns:xlink="http://www.w3.org/1999/xlink" x="0px" y="0px"
	 viewBox="0 0 35 35" style="enable-background:new 0 0 35 35;" xml:space="preserve">
<style type="text/css">
	.st0{fill:#00379B;}
</style>
<g>
	<path class="st0" d="M12,1.3 M24.5,3.8c4.1,2.7,6.2,7.6,5.2,11.5c-1.3,4.9-5.3,0.1-11.5-1.6c-6.1-1.7-12,0.4-10.7-4.5
		C8.1,7,9.8,4.9,12,3.6C14.6,2.4,19,1,24.5,3.8z M12,1.3C6.8,3.8,3.5,9,3.5,14.7c0,1.4,0.2,2.9,0.6,4.2L2,24.2
		c-0.2,0.4-0.1,0.9,0.1,1.2c0.1,0.1,0.3,0.2,0.4,0.2h3.6L7.3,30c0.4,1.7,2.1,2.6,3.8,2.2l3.9-1.1l1,3.8h14.5l-2.5-9.2
		c3.2-2.8,5-6.8,5-11c0-5.8-3.4-11-8.6-13.4C20.4-0.4,16.4-0.5,12,1.3z"/>
	<path class="st0" d="M22.8,4.7c3.5,2.3,5,5.8,4.3,8.6c-0.9,3.5-4.4-0.3-8.8-1.5c-4.4-1.2-9,0.3-8.1-3.2c0.4-1.6,2.1-3.1,3.7-4
		C15.8,3.7,18.9,2.7,22.8,4.7z"/>
</g>
</svg>
