<?xml version="1.0" encoding="utf-8"?>
<!-- Generator: Adobe Illustrator 21.0.0, SVG Export Plug-In . SVG Version: 6.00 Build 0)  -->
<svg version="1.1" id="Calque_1" xmlns="http://www.w3.org/2000/svg" xmlns:xlink="http://www.w3.org/1999/xlink" x="0px" y="0px"
	 viewBox="0 0 84 90" style="enable-background:new 0 0 84 90;" xml:space="preserve">
<style type="text/css">
	.st0{fill:#FFFFFF;}
	.st1{fill:#00379B;}
	.st2{fill:#C8C8C8;}
	.st3{fill:url(#SVGID_1_);}
	.st4{fill:#F5B450;}
</style>
<g>
	<g>
		<g>
			<polygon class="st0" points="1.5,69.3 1.5,20.7 42,1.3 82.5,20.7 82.5,69.3 42,88.7 			"/>
		</g>
		<g>
			<g>
				<path class="st1" d="M42,2.6l39.3,18.9v47.1L42,87.4L2.7,68.5V21.5L42,2.6 M42,0L0.3,20v50L42,90l41.7-20V20L42,0L42,0z"/>
			</g>
		</g>
	</g>
	<g>
		<path class="st1" d="M68.7,61H30.3l19.2-33L68.7,61z M33.7,59h31.5L49.5,32L33.7,59z"/>
	</g>
	<g>
		<path class="st2" d="M47.9,71H15.3l16.3-28L47.9,71z M18.7,69h25.7L31.6,47L18.7,69z"/>
	</g>
	<g>
		<linearGradient id="SVGID_1_" gradientUnits="userSpaceOnUse" x1="50.3638" y1="40" x2="16.1362" y2="40">
			<stop  offset="0" style="stop-color:#00379B"/>
			<stop  offset="1" style="stop-color:#B45596"/>
		</linearGradient>
		<polygon class="st3" points="17.9,60.5 16.1,59.5 31.6,33 36.2,40.9 48.6,19.5 50.4,20.5 36.2,44.8 31.6,37 		"/>
	</g>
	<g>
		<circle class="st4" cx="49.5" cy="20" r="5"/>
		<path class="st1" d="M49.5,26c-3.3,0-6-2.7-6-6s2.7-6,6-6s6,2.7,6,6S52.8,26,49.5,26z M49.5,16c-2.2,0-4,1.8-4,4s1.8,4,4,4
			s4-1.8,4-4S51.7,16,49.5,16z"/>
	</g>
</g>
</svg>
