<?xml version="1.0" encoding="utf-8"?>
<!-- Generator: Adobe Illustrator 21.0.0, SVG Export Plug-In . SVG Version: 6.00 Build 0)  -->
<svg version="1.1" id="Calque_1" xmlns="http://www.w3.org/2000/svg" xmlns:xlink="http://www.w3.org/1999/xlink" x="0px" y="0px"
	 viewBox="0 0 30 30" style="enable-background:new 0 0 30 30;" xml:space="preserve">
<style type="text/css">
	.st0{fill:#00379B;}
	.st1{fill:none;stroke:#FFFFFF;stroke-width:4;stroke-linecap:round;stroke-miterlimit:10;}
</style>
<g>
	<g>
		<path class="st0" d="M0.9,22.2V7.8C0.9,7,1.3,6.3,2,6l12.1-5.8c0.6-0.3,1.2-0.3,1.8,0L28,6c0.7,0.3,1.2,1,1.2,1.8v14.3
			c0,0.8-0.4,1.5-1.2,1.8l-12.1,5.8c-0.6,0.3-1.2,0.3-1.8,0L2,24C1.3,23.7,0.9,23,0.9,22.2z"/>
	</g>
	<line class="st1" x1="8.4" y1="8.4" x2="21.6" y2="8.4"/>
	<line class="st1" x1="8.4" y1="15" x2="21.6" y2="15"/>
	<line class="st1" x1="8.4" y1="21.6" x2="21.6" y2="21.6"/>
</g>
</svg>
