<?xml version="1.0" encoding="utf-8"?>
<!-- Generator: Adobe Illustrator 21.0.0, SVG Export Plug-In . SVG Version: 6.00 Build 0)  -->
<svg version="1.1" id="Calque_1" xmlns="http://www.w3.org/2000/svg" xmlns:xlink="http://www.w3.org/1999/xlink" x="0px" y="0px"
	 viewBox="0 0 35 35" style="enable-background:new 0 0 35 35;" xml:space="preserve">
<style type="text/css">
	.st0{fill:#00379B;}
</style>
<g>
	<path class="st0" d="M22.5,6.3V4.1c0-1.9-0.4-4.1-1-4.1c-0.6,0-2.5,0.8-3.8,2.9h2.2c0.3,0,0.5,0.1,0.5,0.3v3.1
		c0,0.2-0.2,0.4-0.5,0.3h-1.2c0,0-0.9-0.3-0.9-0.9C17.7,5.2,18,5,18.1,5c0.1-0.1,0.2-0.1,0.1-0.2c-0.1-0.1-0.2-0.1-0.3,0
		c-0.1,0-1.2,0.7-1.2,1.7c0,1,0.4,2.7,0.6,3.9c0.1,0.4,0.6,0.5,0.8,0.2L22.5,6.3L22.5,6.3z"/>
	<path class="st0" d="M9.6,18l0.5-0.5v-0.2l-0.5-0.5c-0.2-0.2-0.2-0.6,0-0.8l0.5-0.5v-0.2l-0.5-0.5c-0.2-0.2-0.2-0.6,0-0.8l0.5-0.5
		v-0.2l-0.5-0.5c-0.2-0.2-0.2-0.6,0-0.8l0.5-0.5v-0.2l-0.5-0.5c-0.2-0.2-0.2-0.6,0-0.8l0.3-0.3C9.5,8.4,9,7.6,7.8,7.6
		c-1.5,0-2.3,1.3-2.2,2.8L5.3,22.2c0,0.4,0.5,0.7,0.8,0.4L9.8,19l-0.2-0.2C9.4,18.6,9.4,18.2,9.6,18z"/>
	<path class="st0" d="M30.8,6.9L30.8,6.9c-2-2-5.2-2-7.2,0L4.2,26.3c-2,2-2,5.2,0,7.2l0,0c2,2,5.2,2,7.2,0l19.4-19.4
		C32.8,12.1,32.8,8.9,30.8,6.9z"/>
	<path class="st0" d="M29.9,26.5l1.5-10c0.1-0.5-0.5-0.8-0.8-0.4L25,21.7c-0.1,0.1-0.1,0.2-0.1,0.3c-0.1,0.8-0.3,1.6-0.4,2.2
		c-0.8,4.9,0.9,8.3,1.9,9.8c0.2,0.4,0.8,0.3,0.9-0.1c0.5-1.8,1.6-5.7,2.6-7.1C29.9,26.7,29.9,26.6,29.9,26.5z"/>
</g>
</svg>
