<?xml version="1.0" encoding="utf-8"?>
<!-- Generator: Adobe Illustrator 21.0.0, SVG Export Plug-In . SVG Version: 6.00 Build 0)  -->
<svg version="1.1" id="Calque_1" xmlns="http://www.w3.org/2000/svg" xmlns:xlink="http://www.w3.org/1999/xlink" x="0px" y="0px"
	 viewBox="0 0 40 40" style="enable-background:new 0 0 40 40;" xml:space="preserve">
<style type="text/css">
	.st0{fill:#FFFFFF;}
	.st1{fill:#00379B;}
	.st2{fill:#C8C8C8;}
	.st3{fill:url(#SVGID_1_);}
	.st4{fill:#F5BE50;}
</style>
<g>
	<g>
		<g>
			<polygon class="st0" points="2,30.8 2,9.2 20,0.6 38,9.2 38,30.8 20,39.4 			"/>
		</g>
		<g>
			<g>
				<path class="st1" d="M20,1.2l17.5,8.4v20.9L20,38.8L2.5,30.5V9.5L20,1.2 M20,0L1.5,8.9v22.2L20,40l18.5-8.9V8.9L20,0L20,0z"/>
			</g>
		</g>
	</g>
	<g>
		<path class="st1" d="M31.9,27.1H14.8l8.6-14.7L31.9,27.1z M16.3,26.2h14l-7-12L16.3,26.2z"/>
	</g>
	<g>
		<path class="st2" d="M22.6,31.6H8.1l7.3-12.4L22.6,31.6z M9.7,30.7h11.4l-5.7-9.8L9.7,30.7z"/>
	</g>
	<g>
		<linearGradient id="SVGID_1_" gradientUnits="userSpaceOnUse" x1="23.7172" y1="17.7778" x2="8.505" y2="17.7778">
			<stop  offset="0" style="stop-color:#00379B"/>
			<stop  offset="1" style="stop-color:#B45596"/>
		</linearGradient>
		<polygon class="st3" points="9.3,26.9 8.5,26.4 15.4,14.7 17.4,18.2 22.9,8.7 23.7,9.1 17.4,19.9 15.4,16.4 		"/>
	</g>
	<g>
		<circle class="st4" cx="23.3" cy="8.9" r="2.2"/>
		<path class="st1" d="M23.3,11.6c-1.5,0-2.7-1.2-2.7-2.7s1.2-2.7,2.7-2.7c1.5,0,2.7,1.2,2.7,2.7S24.8,11.6,23.3,11.6z M23.3,7.1
			c-1,0-1.8,0.8-1.8,1.8s0.8,1.8,1.8,1.8c1,0,1.8-0.8,1.8-1.8S24.3,7.1,23.3,7.1z"/>
	</g>
</g>
</svg>
