<?xml version="1.0" encoding="utf-8"?>
<!-- Generator: Adobe Illustrator 21.0.0, SVG Export Plug-In . SVG Version: 6.00 Build 0)  -->
<svg version="1.1" id="Calque_1" xmlns="http://www.w3.org/2000/svg" xmlns:xlink="http://www.w3.org/1999/xlink" x="0px" y="0px"
	 viewBox="0 0 200 200" style="enable-background:new 0 0 200 200;" xml:space="preserve">
<style type="text/css">
	.st0{fill:#FFFFFF;}
	.st1{fill:#00379B;}
	.st2{fill:#C8C8C8;}
	.st3{fill:url(#SVGID_1_);}
	.st4{fill:#F5BE50;}
</style>
<g>
	<g>
		<g>
			<polygon class="st0" points="10,153.9 10,46.1 100,2.9 190,46.1 190,153.9 100,197.1 			"/>
		</g>
		<g>
			<g>
				<path class="st1" d="M100,5.8l87.4,42v104.6l-87.4,42l-87.4-42V47.7L100,5.8 M100,0L7.4,44.4v111.1L100,200l92.6-44.4V44.4
					L100,0L100,0z"/>
			</g>
		</g>
	</g>
	<g>
		<path class="st1" d="M159.4,135.6H73.9l42.8-73.3L159.4,135.6z M81.6,131.1h70l-35-60L81.6,131.1z"/>
	</g>
	<g>
		<path class="st2" d="M113.1,157.8H40.6l36.3-62.2L113.1,157.8z M48.3,153.3h57.1l-28.5-48.9L48.3,153.3z"/>
	</g>
	<g>
		<linearGradient id="SVGID_1_" gradientUnits="userSpaceOnUse" x1="118.5862" y1="88.8889" x2="42.525" y2="88.8889">
			<stop  offset="0" style="stop-color:#00379B"/>
			<stop  offset="1" style="stop-color:#B45596"/>
		</linearGradient>
		<polygon class="st3" points="46.4,134.5 42.5,132.2 76.9,73.4 87,90.8 114.7,43.3 118.6,45.6 87,99.6 76.9,82.2 		"/>
	</g>
	<g>
		<circle class="st4" cx="116.7" cy="44.4" r="11.1"/>
		<path class="st1" d="M116.7,57.8c-7.4,0-13.3-6-13.3-13.3s6-13.3,13.3-13.3c7.4,0,13.3,6,13.3,13.3S124,57.8,116.7,57.8z
			 M116.7,35.6c-4.9,0-8.9,4-8.9,8.9s4,8.9,8.9,8.9c4.9,0,8.9-4,8.9-8.9S121.6,35.6,116.7,35.6z"/>
	</g>
</g>
</svg>
