<?xml version="1.0" encoding="utf-8"?>
<!-- Generator: Adobe Illustrator 21.0.0, SVG Export Plug-In . SVG Version: 6.00 Build 0)  -->
<svg version="1.1" id="Calque_1" xmlns="http://www.w3.org/2000/svg" xmlns:xlink="http://www.w3.org/1999/xlink" x="0px" y="0px"
	 viewBox="0 0 30 30" style="enable-background:new 0 0 30 30;" xml:space="preserve">
<style type="text/css">
	.st0{fill:#00379B;}
</style>
<g>
	<path class="st0" d="M19.3,5.4V3.5c0-1.6-0.4-3.5-0.9-3.5c-0.5,0-2.2,0.7-3.3,2.5H17c0.3,0,0.4,0.1,0.4,0.3v2.7
		c0,0.2-0.2,0.3-0.4,0.3h-1.1c0,0-0.7-0.2-0.7-0.8c0-0.5,0.3-0.6,0.3-0.7c0.1-0.1,0.2-0.1,0.1-0.2c-0.1-0.1-0.2-0.1-0.3,0
		c-0.1,0-1,0.6-1,1.5c0,0.9,0.3,2.3,0.6,3.3c0.1,0.3,0.5,0.4,0.7,0.2L19.3,5.4L19.3,5.4z"/>
	<path class="st0" d="M8.2,15.4L8.7,15v-0.2l-0.5-0.5c-0.2-0.2-0.2-0.5,0-0.7l0.5-0.5V13l-0.5-0.5c-0.2-0.2-0.2-0.5,0-0.7l0.4-0.4
		v-0.2l-0.4-0.4c-0.2-0.2-0.2-0.5,0-0.7l0.5-0.5V9.6L8.2,9.1C8,8.9,8,8.6,8.2,8.4l0.3-0.3C8.1,7.2,7.7,6.5,6.7,6.5
		c-1.3,0-2,1.1-1.9,2.4L4.5,19.1c0,0.4,0.5,0.6,0.7,0.3l3.1-3.1l-0.2-0.2C8,15.9,8,15.6,8.2,15.4z"/>
	<path class="st0" d="M26.4,5.9L26.4,5.9c-1.7-1.7-4.5-1.7-6.2,0L3.6,22.5c-1.7,1.7-1.7,4.5,0,6.2l0,0c1.7,1.7,4.5,1.7,6.2,0
		l16.6-16.6C28.1,10.4,28.1,7.6,26.4,5.9z"/>
	<path class="st0" d="M25.7,22.7l1.2-8.6c0.1-0.4-0.4-0.7-0.7-0.4l-4.8,4.8c-0.1,0.1-0.1,0.1-0.1,0.2c-0.1,0.7-0.2,1.4-0.3,1.9
		c-0.7,4.2,0.8,7.1,1.6,8.4c0.2,0.3,0.7,0.2,0.8-0.1c0.4-1.6,1.4-4.9,2.3-6.1C25.6,22.9,25.7,22.8,25.7,22.7z"/>
</g>
</svg>
