<?xml version="1.0" encoding="utf-8"?>
<!-- Generator: Adobe Illustrator 21.0.0, SVG Export Plug-In . SVG Version: 6.00 Build 0)  -->
<svg version="1.1" id="Calque_1" xmlns="http://www.w3.org/2000/svg" xmlns:xlink="http://www.w3.org/1999/xlink" x="0px" y="0px"
	 viewBox="0 0 20 20" style="enable-background:new 0 0 20 20;" xml:space="preserve">
<style type="text/css">
	.st0{fill:#E6E6E6;}
</style>
<path class="st0" d="M18.6,4l-8.1-3.9C10.2,0,9.8,0,9.4,0.1L1.4,4C0.9,4.2,0.6,4.7,0.6,5.2v9.6c0,0.5,0.3,1,0.8,1.2l8.1,3.9
	c0.4,0.2,0.8,0.2,1.2,0l8.1-3.9c0.5-0.2,0.8-0.7,0.8-1.2V5.2C19.4,4.7,19.1,4.2,18.6,4z M13.7,11.4c0,0.5-0.3,1-0.8,1.2l-2.4,1.1
	c-0.4,0.2-0.8,0.2-1.2,0L7,12.6c-0.5-0.2-0.8-0.7-0.8-1.2V8.6c0-0.5,0.3-1,0.8-1.2l2.4-1.1c0.4-0.2,0.8-0.2,1.2,0L13,7.4
	c0.5,0.2,0.8,0.7,0.8,1.2V11.4z"/>
</svg>
