<?xml version="1.0" encoding="utf-8"?>
<!-- Generator: Adobe Illustrator 21.0.0, SVG Export Plug-In . SVG Version: 6.00 Build 0)  -->
<svg version="1.1" id="Calque_1" xmlns="http://www.w3.org/2000/svg" xmlns:xlink="http://www.w3.org/1999/xlink" x="0px" y="0px"
	 viewBox="0 0 20 20" style="enable-background:new 0 0 20 20;" xml:space="preserve">
<style type="text/css">
	.st0{fill:#00379B;}
	.st1{fill:#FFFFFF;}
</style>
<g>
	<g>
		<path class="st0" d="M0.6,14.8V5.2c0-0.5,0.3-1,0.8-1.2l8.1-3.9c0.4-0.2,0.8-0.2,1.2,0L18.6,4c0.5,0.2,0.8,0.7,0.8,1.2v9.6
			c0,0.5-0.3,1-0.8,1.2l-8.1,3.9c-0.4,0.2-0.8,0.2-1.2,0L1.4,16C0.9,15.8,0.6,15.3,0.6,14.8z"/>
	</g>
	<g>
		<path class="st1" d="M9.1,13.4l-3.3-2.6c-0.6-0.5-0.7-1.3-0.2-1.9C6,8.3,6.9,8.2,7.5,8.7L9.1,10l3.5-2.7c0.6-0.5,1.4-0.4,1.9,0.2
			c0.5,0.6,0.4,1.4-0.2,1.9L9.1,13.4z"/>
	</g>
</g>
</svg>
