<?xml version="1.0" encoding="utf-8"?>
<!-- Generator: Adobe Illustrator 21.0.0, SVG Export Plug-In . SVG Version: 6.00 Build 0)  -->
<svg version="1.1" id="Calque_1" xmlns="http://www.w3.org/2000/svg" xmlns:xlink="http://www.w3.org/1999/xlink" x="0px" y="0px"
	 viewBox="0 0 30 30" style="enable-background:new 0 0 30 30;" xml:space="preserve">
<style type="text/css">
	.st0{fill:#00379B;}
</style>
<g>
	<path class="st0" d="M10.3,1.1 M21,3.2c3.5,2.3,5.3,6.5,4.5,9.9c-1.1,4.2-4.6,0.1-9.8-1.3c-5.2-1.4-10.3,0.3-9.2-3.9
		C7,6,8.4,4.2,10.3,3.1C12.5,2,16.3,0.8,21,3.2z M10.3,1.1C5.8,3.2,3,7.7,3,12.6c0,1.2,0.2,2.4,0.5,3.6l-1.8,4.5
		c-0.1,0.3-0.1,0.8,0.1,1C1.9,21.9,2.1,22,2.2,22h3l1,3.8c0.4,1.4,1.8,2.3,3.3,1.9l3.4-0.9l0.9,3.3h12.4l-2.1-7.9
		c2.7-2.4,4.3-5.8,4.3-9.5c0-4.9-2.9-9.4-7.3-11.5C17.5-0.3,14-0.4,10.3,1.1z"/>
	<path class="st0" d="M19.6,4c3,2,4.3,5,3.7,7.4c-0.8,3-3.8-0.3-7.5-1.3c-3.7-1-7.7,0.2-6.9-2.8C9.2,6,10.6,4.7,12,3.9
		C13.5,3.2,16.2,2.3,19.6,4z"/>
</g>
</svg>
