<?xml version="1.0" encoding="utf-8"?>
<!-- Generator: Adobe Illustrator 21.0.0, SVG Export Plug-In . SVG Version: 6.00 Build 0)  -->
<svg version="1.1" id="Calque_1" xmlns="http://www.w3.org/2000/svg" xmlns:xlink="http://www.w3.org/1999/xlink" x="0px" y="0px"
	 viewBox="0 0 15 15" style="enable-background:new 0 0 15 15;" xml:space="preserve">
<style type="text/css">
	.st0{fill:#00379B;}
</style>
<g>
	<path class="st0" d="M5.2,0.6 M10.5,1.6c1.7,1.1,2.7,3.3,2.2,4.9c-0.5,2.1-2.3,0-4.9-0.7C5.2,5.2,2.7,6,3.2,4c0.3-1,1-1.8,1.9-2.4
		C6.3,1,8.1,0.4,10.5,1.6z M5.2,0.6c-2.2,1-3.7,3.3-3.7,5.7c0,0.6,0.1,1.2,0.3,1.8l-0.9,2.3c-0.1,0.2,0,0.4,0.1,0.5
		C1,11,1,11,1.1,11h1.5l0.5,1.9C3.3,13.6,4,14,4.8,13.8l1.7-0.5L6.9,15h6.2L12,11c1.4-1.2,2.1-2.9,2.1-4.7c0-2.5-1.4-4.7-3.7-5.7
		C8.7-0.2,7-0.2,5.2,0.6z"/>
	<path class="st0" d="M9.8,2c1.5,1,2.2,2.5,1.8,3.7c-0.4,1.5-1.9-0.1-3.8-0.7C6,4.5,4,5.2,4.4,3.7C4.6,3,5.3,2.4,6,2
		C6.8,1.6,8.1,1.2,9.8,2z"/>
</g>
</svg>
